# Exported from Wings 3D 1.0.2
mtllib sphere.mtl
o sphere1
#114 vertices, 224 faces
v 0.38268343 0.92387953 0.0000000e+0
v 0.35355339 0.92387953 0.14644661
v 0.27059805 0.92387953 0.27059805
v 0.14644661 0.92387953 0.35355339
v 2.3431828e-17 0.92387953 0.38268343
v -0.14644661 0.92387953 0.35355339
v -0.27059805 0.92387953 0.27059805
v -0.35355339 0.92387953 0.14644661
v -0.38268343 0.92387953 4.6863656e-17
v -0.35355339 0.92387953 -0.14644661
v -0.27059805 0.92387953 -0.27059805
v -0.14644661 0.92387953 -0.35355339
v -7.0295484e-17 0.92387953 -0.38268343
v 0.14644661 0.92387953 -0.35355339
v 0.27059805 0.92387953 -0.27059805
v 0.35355339 0.92387953 -0.14644661
v 0.70710678 0.70710678 0.0000000e+0
v 0.65328148 0.70710678 0.27059805
v 0.50000000 0.70710678 0.50000000
v 0.27059805 0.70710678 0.65328148
v 4.3296373e-17 0.70710678 0.70710678
v -0.27059805 0.70710678 0.65328148
v -0.50000000 0.70710678 0.50000000
v -0.65328148 0.70710678 0.27059805
v -0.70710678 0.70710678 8.6592746e-17
v -0.65328148 0.70710678 -0.27059805
v -0.50000000 0.70710678 -0.50000000
v -0.27059805 0.70710678 -0.65328148
v -1.2988912e-16 0.70710678 -0.70710678
v 0.27059805 0.70710678 -0.65328148
v 0.50000000 0.70710678 -0.50000000
v 0.65328148 0.70710678 -0.27059805
v 0.92387953 0.38268343 0.0000000e+0
v 0.85355339 0.38268343 0.35355339
v 0.65328148 0.38268343 0.65328148
v 0.35355339 0.38268343 0.85355339
v 5.6569437e-17 0.38268343 0.92387953
v -0.35355339 0.38268343 0.85355339
v -0.65328148 0.38268343 0.65328148
v -0.85355339 0.38268343 0.35355339
v -0.92387953 0.38268343 1.1313887e-16
v -0.85355339 0.38268343 -0.35355339
v -0.65328148 0.38268343 -0.65328148
v -0.35355339 0.38268343 -0.85355339
v -1.6970831e-16 0.38268343 -0.92387953
v 0.35355339 0.38268343 -0.85355339
v 0.65328148 0.38268343 -0.65328148
v 0.85355339 0.38268343 -0.35355339
v 1.00000000 6.1230318e-17 0.0000000e+0
v 0.92387953 6.1230318e-17 0.38268343
v 0.70710678 6.1230318e-17 0.70710678
v 0.38268343 6.1230318e-17 0.92387953
v 6.1230318e-17 6.1230318e-17 1.00000000
v -0.38268343 6.1230318e-17 0.92387953
v -0.70710678 6.1230318e-17 0.70710678
v -0.92387953 6.1230318e-17 0.38268343
v -1.00000000 6.1230318e-17 1.2246064e-16
v -0.92387953 6.1230318e-17 -0.38268343
v -0.70710678 6.1230318e-17 -0.70710678
v -0.38268343 6.1230318e-17 -0.92387953
v -1.8369095e-16 6.1230318e-17 -1.00000000
v 0.38268343 6.1230318e-17 -0.92387953
v 0.70710678 6.1230318e-17 -0.70710678
v 0.92387953 6.1230318e-17 -0.38268343
v 0.92387953 -0.38268343 0.0000000e+0
v 0.85355339 -0.38268343 0.35355339
v 0.65328148 -0.38268343 0.65328148
v 0.35355339 -0.38268343 0.85355339
v 5.6569437e-17 -0.38268343 0.92387953
v -0.35355339 -0.38268343 0.85355339
v -0.65328148 -0.38268343 0.65328148
v -0.85355339 -0.38268343 0.35355339
v -0.92387953 -0.38268343 1.1313887e-16
v -0.85355339 -0.38268343 -0.35355339
v -0.65328148 -0.38268343 -0.65328148
v -0.35355339 -0.38268343 -0.85355339
v -1.6970831e-16 -0.38268343 -0.92387953
v 0.35355339 -0.38268343 -0.85355339
v 0.65328148 -0.38268343 -0.65328148
v 0.85355339 -0.38268343 -0.35355339
v 0.70710678 -0.70710678 0.0000000e+0
v 0.65328148 -0.70710678 0.27059805
v 0.50000000 -0.70710678 0.50000000
v 0.27059805 -0.70710678 0.65328148
v 4.3296373e-17 -0.70710678 0.70710678
v -0.27059805 -0.70710678 0.65328148
v -0.50000000 -0.70710678 0.50000000
v -0.65328148 -0.70710678 0.27059805
v -0.70710678 -0.70710678 8.6592746e-17
v -0.65328148 -0.70710678 -0.27059805
v -0.50000000 -0.70710678 -0.50000000
v -0.27059805 -0.70710678 -0.65328148
v -1.2988912e-16 -0.70710678 -0.70710678
v 0.27059805 -0.70710678 -0.65328148
v 0.50000000 -0.70710678 -0.50000000
v 0.65328148 -0.70710678 -0.27059805
v 0.38268343 -0.92387953 0.0000000e+0
v 0.35355339 -0.92387953 0.14644661
v 0.27059805 -0.92387953 0.27059805
v 0.14644661 -0.92387953 0.35355339
v 2.3431828e-17 -0.92387953 0.38268343
v -0.14644661 -0.92387953 0.35355339
v -0.27059805 -0.92387953 0.27059805
v -0.35355339 -0.92387953 0.14644661
v -0.38268343 -0.92387953 4.6863656e-17
v -0.35355339 -0.92387953 -0.14644661
v -0.27059805 -0.92387953 -0.27059805
v -0.14644661 -0.92387953 -0.35355339
v -7.0295484e-17 -0.92387953 -0.38268343
v 0.14644661 -0.92387953 -0.35355339
v 0.27059805 -0.92387953 -0.27059805
v 0.35355339 -0.92387953 -0.14644661
v 0.0000000e+0 1.00000000 0.0000000e+0
v 0.0000000e+0 -1.00000000 0.0000000e+0
vt 0.0000000e+0 0.24636535
vt 3.5557262e-3 0.33935940
vt 2.6603628e-2 0.15718697
vt 3.8779255e-2 0.42947085
vt 7.8580852e-2 0.32832924
vt 7.9518199e-2 0.25642575
vt 8.3159342e-2 7.8687149e-2
vt 9.5319305e-2 0.40304517
vt 9.6517773e-2 0.18655440
vt 0.10844272 0.50730630
vt 0.13133664 0.11836134
vt 0.13575454 0.48045084
vt 0.13966277 0.32484627
vt 0.14297449 0.26445405
vt 0.14573062 0.38986204
vt 0.15480765 0.20513992
vt 0.16574705 0.46422838
vt 0.17001253 2.0653706e-2
vt 0.17687633 0.14368391
vt 0.18977550 5.3464928e-2
vt 0.19179108 0.38545268
vt 0.19296441 0.32592420
vt 0.19635308 0.45680069
vt 0.19797951 0.27141311
vt 0.20669828 0.21737060
vt 0.21410620 0.55580331
vt 0.21478282 7.6645793e-2
vt 0.22038734 0.15942558
vt 0.22660907 0.45697966
vt 0.23536421 0.38777840
vt 0.24257465 9.1461801e-2
vt 0.24261431 0.33047301
vt 0.24926548 0.27790166
vt 0.25591664 0.22533031
vt 0.25595630 0.46434151
vt 0.26316675 0.16802492
vt 0.27192188 9.8823656e-2
vt 0.27814361 0.39637774
vt 0.28374814 0.47915752
vt 0.28442475 0.0000000e+0
vt 0.29183267 0.33843271
vt 0.30055145 0.28439020
vt 0.30217787 9.9002619e-2
vt 0.30556654 0.22987911
vt 0.30673987 0.17035064
vt 0.30875546 0.50233839
vt 0.32165462 0.41211940
vt 0.32851843 0.53514961
vt 0.33278391 9.1574933e-2
vt 0.34372330 0.35066339
vt 0.35280033 0.16594128
vt 0.35555646 0.29134927
vt 0.35886819 0.23095704
vt 0.36277642 7.5352479e-2
vt 0.36719432 0.43744197
vt 0.39008823 4.8497014e-2
vt 0.40201318 0.36924891
vt 0.40321165 0.15275814
vt 0.41537161 0.47711617
vt 0.41901275 0.29937757
vt 0.41995010 0.22747408
vt 0.45975170 0.12633247
vt 0.47192732 0.39861635
vt 0.49497523 0.21644392
vt 0.49853095 0.30943797
vt 0.49853095 0.23772209
vt 0.50451861 0.33079262
vt 0.52339064 0.14645269
vt 0.54164247 0.41880079
vt 0.57885806 0.24662685
vt 0.57900608 0.31856270
vt 0.58045532 6.4041542e-2
vt 0.59517446 0.17574299
vt 0.59665820 0.39214105
vt 0.61067068 0.49252023
vt 0.63045756 0.10572064
vt 0.63672758 0.46682530
vt 0.63985434 0.31479243
vt 0.64274584 0.25447192
vt 0.64623659 0.37910246
vt 0.65435368 0.19475113
vt 0.66580605 0.45153554
vt 0.67342542 1.9209035e-3
vt 0.67680393 0.13258721
vt 0.69183264 0.37517795
vt 0.69216025 3.9121473e-2
vt 0.69301437 0.31613468
vt 0.69575723 0.44507812
vt 0.69791147 0.26172166
vt 0.70661484 0.20761801
vt 0.70926424 0.53747017
vt 0.71662560 6.5277866e-2
vt 0.72060597 0.14958351
vt 0.72553041 0.44641891
vt 0.73516009 0.37826778
vt 0.74261126 0.32123464
vt 0.74403342 8.2180669e-2
vt 0.74926548 0.26873508
vt 0.75449754 0.45528950
vt 0.75591970 0.21623553
vt 0.76337086 0.15920238
vt 0.77300055 9.1051257e-2
vt 0.77792498 0.38788666
vt 0.78190536 0.47219230
vt 0.78926671 0.0000000e+0
vt 0.79191611 0.32985216
vt 0.80061948 0.27574851
vt 0.80277372 9.2392048e-2
vt 0.80551658 0.22133549
vt 0.80637070 0.49834869
vt 0.80669831 0.16229221
vt 0.82172702 0.40488296
vt 0.82510553 0.53554926
vt 0.83272490 8.5934627e-2
vt 0.84417728 0.34271904
vt 0.85229436 0.15836771
vt 0.85578512 0.28299824
vt 0.85867661 0.22267774
vt 0.86180337 7.0644864e-2
vt 0.86807340 0.43174953
vt 0.88786027 4.4949935e-2
vt 0.90187276 0.14532911
vt 0.90335650 0.36172718
vt 0.91807564 0.47342862
vt 0.91952488 0.21890746
vt 0.91967289 0.29084331
vt 0.95688849 0.11866938
vt 0.97514032 0.39101748
vt 0.99401234 0.20667754
vt 1.00000000 0.29974807
vn 0.44254783 0.89674490 -8.0352547e-17
vn 0.35310199 0.92408176 0.14625963
vn 0.31292857 0.89674490 0.31292857
vn 0.14625963 0.92408176 0.35310199
vn 2.3633102e-18 0.89674490 0.44254783
vn -0.14625963 0.92408176 0.35310199
vn -0.31292857 0.89674490 0.31292857
vn -0.35310199 0.92408176 0.14625963
vn -0.44254783 0.89674490 2.5996412e-17
vn -0.35310199 0.92408176 -0.14625963
vn -0.31292857 0.89674490 -0.31292857
vn -0.14625963 0.92408176 -0.35310199
vn -3.7812963e-17 0.89674490 -0.44254783
vn 0.14625963 0.92408176 -0.35310199
vn 0.31292857 0.89674490 -0.31292857
vn 0.35310199 0.92408176 -0.14625963
vn 0.70658450 0.70762868 1.3574215e-16
vn 0.65279895 0.70762868 0.27039818
vn 0.49963069 0.70762868 0.49963069
vn 0.27039818 0.70762868 0.65279895
vn 7.1443235e-18 0.70762868 0.70658450
vn -0.27039818 0.70762868 0.65279895
vn -0.49963069 0.70762868 0.49963069
vn -0.65279895 0.70762868 0.27039818
vn -0.70658450 0.70762868 1.1430918e-16
vn -0.65279895 0.70762868 -0.27039818
vn -0.49963069 0.70762868 -0.49963069
vn -0.27039818 0.70762868 -0.65279895
vn 1.4288647e-17 0.70762868 -0.70658450
vn 0.27039818 0.70762868 -0.65279895
vn 0.49963069 0.70762868 -0.49963069
vn 0.65279895 0.70762868 -0.27039818
vn 0.92368212 0.38315969 -8.6274346e-17
vn 0.85337100 0.38315969 0.35347784
vn 0.65314189 0.38315969 0.65314189
vn 0.35347784 0.38315969 0.85337100
vn 1.0784293e-17 0.38315969 0.92368212
vn -0.35347784 0.38315969 0.85337100
vn -0.65314189 0.38315969 0.65314189
vn -0.85337100 0.38315969 0.35347784
vn -0.92368212 0.38315969 1.4738534e-16
vn -0.85337100 0.38315969 -0.35347784
vn -0.65314189 0.38315969 -0.65314189
vn -0.35347784 0.38315969 -0.85337100
vn -4.3137173e-17 0.38315969 -0.92368212
vn 0.35347784 0.38315969 -0.85337100
vn 0.65314189 0.38315969 -0.65314189
vn 0.85337100 0.38315969 -0.35347784
vn 1.00000000 0.0000000e+0 -1.0812319e-16
vn 0.92387953 -1.8020531e-17 0.38268343
vn 0.70710678 0.0000000e+0 0.70710678
vn 0.38268343 3.6041063e-17 0.92387953
vn 0.0000000e+0 7.2082126e-18 1.00000000
vn -0.38268343 1.8020531e-17 0.92387953
vn -0.70710678 1.4416425e-17 0.70710678
vn -0.92387953 3.6041063e-18 0.38268343
vn -1.00000000 -7.2082126e-18 1.4416425e-16
vn -0.92387953 -5.4061594e-17 -0.38268343
vn -0.70710678 -8.6498551e-17 -0.70710678
vn -0.38268343 -1.4416425e-17 -0.92387953
vn -3.6761884e-16 7.2082126e-18 -1.00000000
vn 0.38268343 0.0000000e+0 -0.92387953
vn 0.70710678 1.4416425e-17 -0.70710678
vn 0.92387953 -3.6041063e-17 -0.38268343
vn 0.92368212 -0.38315969 -1.4019581e-16
vn 0.85337100 -0.38315969 0.35347784
vn 0.65314189 -0.38315969 0.65314189
vn 0.35347784 -0.38315969 0.85337100
vn 7.1895288e-18 -0.38315969 0.92368212
vn -0.35347784 -0.38315969 0.85337100
vn -0.65314189 -0.38315969 0.65314189
vn -0.85337100 -0.38315969 0.35347784
vn -0.92368212 -0.38315969 1.5816963e-16
vn -0.85337100 -0.38315969 -0.35347784
vn -0.65314189 -0.38315969 -0.65314189
vn -0.35347784 -0.38315969 -0.85337100
vn 7.1895288e-18 -0.38315969 -0.92368212
vn 0.35347784 -0.38315969 -0.85337100
vn 0.65314189 -0.38315969 -0.65314189
vn 0.85337100 -0.38315969 -0.35347784
vn 0.70658450 -0.70762868 -6.7871073e-17
vn 0.65279895 -0.70762868 0.27039818
vn 0.49963069 -0.70762868 0.49963069
vn 0.27039818 -0.70762868 0.65279895
vn 1.0716485e-17 -0.70762868 0.70658450
vn -0.27039818 -0.70762868 0.65279895
vn -0.49963069 -0.70762868 0.49963069
vn -0.65279895 -0.70762868 0.27039818
vn -0.70658450 -0.70762868 1.1430918e-16
vn -0.65279895 -0.70762868 -0.27039818
vn -0.49963069 -0.70762868 -0.49963069
vn -0.27039818 -0.70762868 -0.65279895
vn 3.5721617e-18 -0.70762868 -0.70658450
vn 0.27039818 -0.70762868 -0.65279895
vn 0.49963069 -0.70762868 -0.49963069
vn 0.65279895 -0.70762868 -0.27039818
vn 0.44254783 -0.89674490 2.1033461e-16
vn 0.35310199 -0.92408176 0.14625963
vn 0.31292857 -0.89674490 0.31292857
vn 0.14625963 -0.92408176 0.35310199
vn 2.3633102e-17 -0.89674490 0.44254783
vn -0.14625963 -0.92408176 0.35310199
vn -0.31292857 -0.89674490 0.31292857
vn -0.35310199 -0.92408176 0.14625963
vn -0.44254783 -0.89674490 5.4356134e-17
vn -0.35310199 -0.92408176 -0.14625963
vn -0.31292857 -0.89674490 -0.31292857
vn -0.14625963 -0.92408176 -0.35310199
vn -3.5449653e-17 -0.89674490 -0.44254783
vn 0.14625963 -0.92408176 -0.35310199
vn 0.31292857 -0.89674490 -0.31292857
vn 0.35310199 -0.92408176 -0.14625963
vn -7.0801599e-18 1.00000000 -4.3365979e-17
vn -8.8501998e-18 -1.00000000 -6.2393909e-17
g sphere1_sphere1_auv
usemtl sphere1_auv
f 1/48/1 18/55/18 17/59/17
f 1/75/1 32/74/32 16/77/16
f 1/48/1 113/26/113 2/46/2
f 2/46/2 18/55/18 1/48/1
f 2/46/2 113/26/113 3/39/3
f 3/39/3 18/55/18 2/46/2
f 3/39/3 20/38/20 19/47/19
f 3/39/3 113/26/113 4/35/4
f 4/35/4 20/38/20 3/39/3
f 4/35/4 113/26/113 5/29/5
f 5/29/5 20/38/20 4/35/4
f 5/29/5 22/21/22 21/30/21
f 5/29/5 113/26/113 6/23/6
f 6/23/6 22/21/22 5/29/5
f 6/23/6 113/26/113 7/17/7
f 7/17/7 22/21/22 6/23/6
f 7/17/7 24/8/24 23/15/23
f 7/17/7 113/26/113 8/12/8
f 8/12/8 24/8/24 7/17/7
f 8/12/8 113/26/113 9/10/9
f 9/10/9 24/8/24 8/12/8
f 9/113/9 26/120/26 25/124/25
f 9/113/9 113/91/113 10/110/10
f 10/110/10 26/120/26 9/113/9
f 10/110/10 113/91/113 11/104/11
f 11/104/11 26/120/26 10/110/10
f 11/104/11 28/103/28 27/112/27
f 11/104/11 113/91/113 12/99/12
f 12/99/12 28/103/28 11/104/11
f 12/99/12 113/91/113 13/94/13
f 13/94/13 28/103/28 12/99/12
f 13/94/13 30/85/30 29/95/29
f 13/94/13 113/91/113 14/88/14
f 14/88/14 30/85/30 13/94/13
f 14/88/14 113/91/113 15/82/15
f 15/82/15 30/85/30 14/88/14
f 15/82/15 32/74/32 31/80/31
f 15/82/15 113/91/113 16/77/16
f 16/77/16 32/74/32 15/82/15
f 16/77/16 113/91/113 1/75/1
f 17/69/17 32/74/32 1/75/1
f 17/69/17 33/67/33 32/74/32
f 18/55/18 33/63/33 17/59/17
f 18/55/18 35/50/35 34/57/34
f 19/47/19 18/55/18 3/39/3
f 19/47/19 35/50/35 18/55/18
f 20/38/20 35/50/35 19/47/19
f 20/38/20 37/32/37 36/41/36
f 21/30/21 20/38/20 5/29/5
f 21/30/21 37/32/37 20/38/20
f 22/21/22 37/32/37 21/30/21
f 22/21/22 39/13/39 38/22/38
f 23/15/23 22/21/22 7/17/7
f 23/15/23 39/13/39 22/21/22
f 24/8/24 39/13/39 23/15/23
f 24/8/24 41/2/41 40/5/40
f 25/4/25 24/8/24 9/10/9
f 25/4/25 41/2/41 24/8/24
f 26/120/26 41/128/41 25/124/25
f 26/120/26 43/115/43 42/123/42
f 27/112/27 26/120/26 11/104/11
f 27/112/27 43/115/43 26/120/26
f 28/103/28 43/115/43 27/112/27
f 28/103/28 45/96/45 44/106/44
f 29/95/29 28/103/28 13/94/13
f 29/95/29 45/96/45 28/103/28
f 30/85/30 45/96/45 29/95/29
f 30/85/30 47/78/47 46/87/46
f 31/80/31 30/85/30 15/82/15
f 31/80/31 47/78/47 30/85/30
f 32/74/32 33/67/33 48/71/48
f 32/74/32 47/78/47 31/80/31
f 33/63/33 50/60/50 49/65/49
f 33/67/33 64/70/64 48/71/48
f 34/57/34 33/63/33 18/55/18
f 34/57/34 50/60/50 33/63/33
f 35/50/35 50/60/50 34/57/34
f 35/50/35 52/42/52 51/52/51
f 36/41/36 35/50/35 20/38/20
f 36/41/36 52/42/52 35/50/35
f 37/32/37 52/42/52 36/41/36
f 37/32/37 54/24/54 53/33/53
f 38/22/38 37/32/37 22/21/22
f 38/22/38 54/24/54 37/32/37
f 39/13/39 54/24/54 38/22/38
f 39/13/39 56/6/56 55/14/55
f 40/5/40 39/13/39 24/8/24
f 40/5/40 56/6/56 39/13/39
f 41/2/41 56/6/56 40/5/40
f 41/128/41 58/126/58 57/130/57
f 42/123/42 41/128/41 26/120/26
f 42/123/42 58/126/58 41/128/41
f 43/115/43 58/126/58 42/123/42
f 43/115/43 60/107/60 59/117/59
f 44/106/44 43/115/43 28/103/28
f 44/106/44 60/107/60 43/115/43
f 45/96/45 60/107/60 44/106/44
f 45/96/45 62/89/62 61/98/61
f 46/87/46 45/96/45 30/85/30
f 46/87/46 62/89/62 45/96/45
f 47/78/47 62/89/62 46/87/46
f 47/78/47 64/70/64 63/79/63
f 48/71/48 47/78/47 32/74/32
f 48/71/48 64/70/64 47/78/47
f 49/66/49 64/70/64 33/67/33
f 49/66/49 65/68/65 64/70/64
f 50/60/50 65/64/65 49/65/49
f 50/60/50 67/53/67 66/61/66
f 51/52/51 50/60/50 35/50/35
f 51/52/51 67/53/67 50/60/50
f 52/42/52 67/53/67 51/52/51
f 52/42/52 69/34/69 68/44/68
f 53/33/53 52/42/52 37/32/37
f 53/33/53 69/34/69 52/42/52
f 54/24/54 69/34/69 53/33/53
f 54/24/54 71/16/71 70/25/70
f 55/14/55 54/24/54 39/13/39
f 55/14/55 71/16/71 54/24/54
f 56/6/56 71/16/71 55/14/55
f 56/6/56 73/3/73 72/9/72
f 57/1/57 56/6/56 41/2/41
f 57/1/57 73/3/73 56/6/56
f 58/126/58 73/129/73 57/130/57
f 58/126/58 75/118/75 74/125/74
f 59/117/59 58/126/58 43/115/43
f 59/117/59 75/118/75 58/126/58
f 60/107/60 75/118/75 59/117/59
f 60/107/60 77/100/77 76/109/76
f 61/98/61 60/107/60 45/96/45
f 61/98/61 77/100/77 60/107/60
f 62/89/62 77/100/77 61/98/61
f 62/89/62 79/81/79 78/90/78
f 63/79/63 62/89/62 47/78/47
f 63/79/63 79/81/79 62/89/62
f 64/70/64 65/68/65 80/73/80
f 64/70/64 79/81/79 63/79/63
f 65/64/65 82/58/82 81/62/81
f 65/68/65 96/76/96 80/73/80
f 66/61/66 65/64/65 50/60/50
f 66/61/66 82/58/82 65/64/65
f 67/53/67 82/58/82 66/61/66
f 67/53/67 84/45/84 83/51/83
f 68/44/68 67/53/67 52/42/52
f 68/44/68 84/45/84 67/53/67
f 69/34/69 84/45/84 68/44/68
f 69/34/69 86/28/86 85/36/85
f 70/25/70 69/34/69 54/24/54
f 70/25/70 86/28/86 69/34/69
f 71/16/71 86/28/86 70/25/70
f 71/16/71 88/11/88 87/19/87
f 72/9/72 71/16/71 56/6/56
f 72/9/72 88/11/88 71/16/71
f 73/3/73 88/11/88 72/9/72
f 73/129/73 90/122/90 89/127/89
f 74/125/74 73/129/73 58/126/58
f 74/125/74 90/122/90 73/129/73
f 75/118/75 90/122/90 74/125/74
f 75/118/75 92/111/92 91/116/91
f 76/109/76 75/118/75 60/107/60
f 76/109/76 92/111/92 75/118/75
f 77/100/77 92/111/92 76/109/76
f 77/100/77 94/93/94 93/101/93
f 78/90/78 77/100/77 62/89/62
f 78/90/78 94/93/94 77/100/77
f 79/81/79 94/93/94 78/90/78
f 79/81/79 96/76/96 95/84/95
f 80/73/80 79/81/79 64/70/64
f 80/73/80 96/76/96 79/81/79
f 81/72/81 96/76/96 65/68/65
f 81/72/81 97/83/97 96/76/96
f 82/58/82 97/56/97 81/62/81
f 82/58/82 99/49/99 98/54/98
f 83/51/83 82/58/82 67/53/67
f 83/51/83 99/49/99 82/58/82
f 84/45/84 99/49/99 83/51/83
f 84/45/84 101/37/101 100/43/100
f 85/36/85 84/45/84 69/34/69
f 85/36/85 101/37/101 84/45/84
f 86/28/86 101/37/101 85/36/85
f 86/28/86 103/27/103 102/31/102
f 87/19/87 86/28/86 71/16/71
f 87/19/87 103/27/103 86/28/86
f 88/11/88 103/27/103 87/19/87
f 88/11/88 105/18/105 104/20/104
f 89/7/89 88/11/88 73/3/73
f 89/7/89 105/18/105 88/11/88
f 90/122/90 105/121/105 89/127/89
f 90/122/90 107/114/107 106/119/106
f 91/116/91 90/122/90 75/118/75
f 91/116/91 107/114/107 90/122/90
f 92/111/92 107/114/107 91/116/91
f 92/111/92 109/102/109 108/108/108
f 93/101/93 92/111/92 77/100/77
f 93/101/93 109/102/109 92/111/92
f 94/93/94 109/102/109 93/101/93
f 94/93/94 111/92/111 110/97/110
f 95/84/95 94/93/94 79/81/79
f 95/84/95 111/92/111 94/93/94
f 96/76/96 97/83/97 112/86/112
f 96/76/96 111/92/111 95/84/95
f 97/83/97 114/105/114 112/86/112
f 98/54/98 97/56/97 82/58/82
f 98/54/98 114/40/114 97/56/97
f 99/49/99 114/40/114 98/54/98
f 100/43/100 99/49/99 84/45/84
f 100/43/100 114/40/114 99/49/99
f 101/37/101 114/40/114 100/43/100
f 102/31/102 101/37/101 86/28/86
f 102/31/102 114/40/114 101/37/101
f 103/27/103 114/40/114 102/31/102
f 104/20/104 103/27/103 88/11/88
f 104/20/104 114/40/114 103/27/103
f 105/18/105 114/40/114 104/20/104
f 106/119/106 105/121/105 90/122/90
f 106/119/106 114/105/114 105/121/105
f 107/114/107 114/105/114 106/119/106
f 108/108/108 107/114/107 92/111/92
f 108/108/108 114/105/114 107/114/107
f 109/102/109 114/105/114 108/108/108
f 110/97/110 109/102/109 94/93/94
f 110/97/110 114/105/114 109/102/109
f 111/92/111 114/105/114 110/97/110
f 112/86/112 111/92/111 96/76/96
f 112/86/112 114/105/114 111/92/111
